# xmcd
#
# Track frame offsets: 
#        150
#        14052
#        29334
#        57090
#        73450
#        85146
#        100556
#        114724
#        134181
#        151704
#        166772
#        179981
#        196055
#        215012
#        228901
#        248092
#        261242
#        278920
#        295347
#
# Disc length: 4207 seconds
#
# Revision: 0
# Processed by: cddbd v1.5.2PL0 Copyright (c) Steve Scherf et al.
# Submitted via: ExactAudioCopy v1.1
#
DISCID=1e106d13
DTITLE=Various Artist - 1000 Klassiekers Radio 2 Vol. 02 - CD 2
DYEAR=2010
DGENRE=Pop
TTITLE0=Wild Cherry - Play That Funky Music
TTITLE1=Patti Smith Group - Because The Night
TTITLE2=Deep Purple - Child In Time
TTITLE3=The Proclaimers - I'm Gonna Be (500 Miles)
TTITLE4=Johnny Cash - I Walk The Line
TTITLE5=Yasmine - Porselein
TTITLE6=Elvis Presley - Are You Lonesome Tonight
TTITLE7=Carly Simon - You're So Vain
TTITLE8=Albert Hammond - It Never Rains In Southern California
TTITLE9=Willy Sommers - Het Water Is Veel Te Diep
TTITLE10=Percy Sledge - When A Man Loves A Woman
TTITLE11=Mud - Lonely This Christmas
TTITLE12=The Alan Parsons Project - Don't Answer Me
TTITLE13=Tom Jones - Green, Green Grass Of Home
TTITLE14=Julio Iglesias - Un Canto A Galicia
TTITLE15=Anneke Grönloh - Brandend Zand
TTITLE16=Steve Harley and Cockney Rebel - Make Me Smile (Come Up And See
TTITLE16=Me)
TTITLE17=Bachman - Turner Overdrive - You Ain't Seen Nothin' Yet
TTITLE18=Whitney Houston - I Will Always Love You
EXTD=
EXTT0=
EXTT1=
EXTT2=
EXTT3=
EXTT4=
EXTT5=
EXTT6=
EXTT7=
EXTT8=
EXTT9=
EXTT10=
EXTT11=
EXTT12=
EXTT13=
EXTT14=
EXTT15=
EXTT16=
EXTT17=
EXTT18=
PLAYORDER=
